 <svg version="1.0" xmlns="http://www.w3.org/2000/svg" width="20.000000pt" height="20.000000pt" viewBox="0 0 700.000000 694.000000" preserveAspectRatio="xMidYMid meet">
<metadata>
Created by potrace 1.12, written by Peter Selinger 2001-2015
</metadata>
<g transform="translate(0.000000,694.000000) scale(0.100000,-0.100000)" fill="#000000" stroke="none">
<path d="M1555 6925 c-19 -9 -67 -14 -131 -15 -59 0 -121 -6 -150 -15 -27 -8
-67 -15 -89 -15 -22 0 -52 -6 -66 -14 -14 -7 -47 -16 -72 -20 -26 -4 -49 -11
-52 -17 -4 -5 -15 -9 -27 -9 -11 0 -32 -6 -46 -14 -15 -7 -52 -26 -82 -42 -30
-15 -68 -36 -85 -46 -16 -10 -37 -21 -45 -25 -23 -10 -136 -99 -213 -167 -122
-108 -279 -320 -338 -456 -6 -14 -17 -37 -25 -52 -8 -14 -14 -35 -14 -46 0
-12 -4 -23 -9 -27 -6 -3 -13 -26 -17 -52 -4 -25 -13 -58 -20 -72 -8 -14 -14
-43 -14 -63 0 -20 -7 -63 -15 -95 -8 -31 -15 -98 -15 -148 -1 -52 -7 -107 -15
-130 -22 -62 -22 -3779 0 -3821 10 -20 15 -61 15 -134 1 -65 6 -120 15 -145 8
-22 15 -60 15 -85 0 -25 7 -58 15 -74 8 -15 15 -34 15 -41 0 -23 32 -119 58
-175 61 -133 53 -119 127 -230 48 -74 335 -370 358 -370 6 0 20 -9 31 -19 28
-26 74 -53 176 -102 47 -23 97 -48 112 -55 14 -8 35 -14 46 -14 11 0 33 -7 48
-15 16 -8 42 -15 57 -15 16 0 38 -5 50 -12 12 -6 54 -15 92 -19 39 -4 90 -13
115 -20 68 -21 4108 -20 4195 0 33 8 92 17 130 21 39 4 84 12 100 18 53 20
133 42 150 42 9 0 29 6 43 14 15 8 63 31 107 52 265 123 544 402 669 670 20
43 44 92 52 107 7 16 14 39 14 52 0 13 4 26 9 29 5 3 12 27 16 53 4 27 12 57
18 68 6 11 14 54 18 95 4 41 13 95 19 120 9 34 13 491 17 1825 4 1739 -2 2380
-24 2407 -6 7 -13 46 -15 85 -3 40 -10 78 -16 85 -5 7 -13 37 -17 65 -4 29
-11 55 -16 59 -5 3 -9 14 -9 26 0 22 -11 49 -72 173 -44 91 -52 106 -90 156
-16 20 -28 42 -28 47 0 22 -297 309 -372 358 -94 64 -271 154 -301 154 -12 0
-31 7 -41 15 -11 8 -36 15 -55 15 -20 0 -45 7 -55 15 -11 8 -39 15 -62 15 -24
0 -55 5 -71 11 -15 7 -90 15 -166 18 -84 5 -142 12 -149 19 -19 19 -3762 16
-3803 -3z m1942 -1611 c3 -8 15 -14 27 -14 12 0 37 -16 57 -36 18 -20 57 -51
84 -69 28 -18 68 -51 90 -74 21 -22 46 -41 55 -41 8 -1 40 -24 69 -52 l55 -50
-60 -54 c-32 -29 -66 -53 -74 -54 -9 0 -42 -27 -75 -60 -33 -33 -66 -60 -75
-60 -9 0 -42 -27 -74 -59 -33 -33 -70 -62 -82 -65 -13 -4 -24 -11 -24 -16 0
-25 -32 -5 -83 50 -31 33 -62 60 -69 60 -8 0 -43 27 -78 60 -36 33 -70 60 -77
60 -6 0 -44 31 -85 69 l-73 69 70 66 c39 36 77 65 85 66 9 0 45 29 80 65 35
36 71 65 79 65 8 0 40 25 72 55 51 49 61 55 79 45 12 -6 24 -18 27 -26z
m-1092 -914 c27 -27 56 -50 65 -50 9 0 32 -16 51 -36 18 -20 57 -51 84 -69 28
-18 66 -49 84 -69 19 -20 42 -36 51 -36 8 0 42 -27 75 -60 33 -33 66 -60 75
-60 9 0 42 -27 75 -60 33 -33 66 -60 75 -60 9 0 34 -18 55 -41 22 -22 56 -49
75 -59 19 -10 57 -41 85 -69 27 -28 56 -51 64 -51 9 0 43 -27 76 -60 l61 -60
29 30 c16 16 36 30 45 30 9 0 36 21 60 46 25 25 61 54 80 64 19 10 55 39 79
63 24 25 49 43 55 41 6 -2 40 25 76 61 35 36 71 65 78 65 8 0 43 27 79 60 36
33 71 60 77 60 7 0 32 20 56 45 24 25 51 45 60 45 9 0 42 27 75 60 33 33 66
60 75 60 9 0 42 27 75 60 33 33 67 60 77 60 9 0 22 9 28 20 17 32 38 24 107
-42 35 -35 75 -67 88 -73 37 -16 115 -94 115 -114 0 -12 -16 -29 -42 -44 -24
-14 -61 -44 -83 -66 -21 -23 -46 -41 -55 -41 -9 0 -42 -27 -75 -60 -33 -33
-66 -60 -74 -60 -8 0 -42 -27 -77 -60 -34 -33 -68 -60 -76 -60 -8 0 -36 -22
-63 -50 -27 -27 -57 -50 -66 -50 -10 0 -43 -27 -75 -60 -31 -33 -64 -60 -73
-60 -9 0 -43 -27 -76 -60 -33 -33 -66 -60 -73 -60 -8 0 -43 -27 -79 -60 -36
-33 -71 -60 -77 -60 -6 0 -33 -20 -60 -45 -26 -25 -55 -45 -63 -45 -8 0 -38
-25 -66 -57 -29 -31 -66 -62 -84 -69 -17 -8 -34 -18 -38 -24 -3 -5 -21 -10
-40 -10 -27 0 -41 9 -79 51 -25 28 -50 48 -56 44 -6 -4 -41 23 -79 59 -37 36
-73 66 -79 66 -7 0 -40 27 -75 60 -34 33 -69 60 -77 60 -9 0 -36 20 -60 45
-24 25 -49 45 -56 45 -6 0 -41 27 -77 60 -36 33 -71 60 -79 60 -7 0 -40 27
-73 60 -33 33 -66 60 -75 60 -9 0 -38 23 -65 50 -27 28 -54 50 -61 50 -6 0
-41 27 -77 60 -36 33 -71 60 -79 60 -7 0 -40 27 -73 60 -33 33 -66 60 -75 60
-19 0 -123 103 -114 113 4 4 15 7 23 7 9 0 43 27 76 60 33 33 67 60 76 60 8 0
37 23 63 50 26 28 53 50 60 50 6 0 34 -22 61 -50z m-975 -730 c6 -11 19 -20
30 -20 11 0 38 -20 61 -45 23 -25 49 -45 58 -45 9 0 43 -27 76 -60 33 -33 67
-60 76 -60 9 0 46 -27 82 -60 36 -33 70 -60 77 -60 7 0 41 -27 77 -60 36 -33
72 -60 79 -60 6 0 33 -23 58 -51 26 -29 50 -48 57 -44 6 4 38 -21 75 -59 36
-36 71 -66 79 -66 8 0 42 -26 76 -57 33 -32 73 -63 87 -69 15 -6 43 -28 61
-48 19 -20 40 -36 47 -36 6 0 41 -27 77 -60 36 -33 71 -60 79 -60 7 0 40 -27
73 -60 33 -33 66 -60 75 -60 9 0 44 -29 79 -64 35 -35 69 -62 75 -60 6 2 34
-18 61 -46 27 -27 55 -50 63 -50 8 0 42 -27 76 -60 35 -33 69 -60 77 -60 7 0
41 -27 74 -60 l61 -60 29 30 c16 16 36 30 45 30 9 0 32 16 51 36 18 20 57 51
84 69 28 18 66 49 84 69 19 20 42 36 51 36 8 0 45 29 80 65 35 36 71 65 78 65
8 0 43 27 79 60 36 33 71 60 77 60 7 0 32 20 56 45 24 25 51 45 60 45 9 0 42
27 75 60 33 33 66 60 74 60 8 0 42 27 77 60 34 33 68 60 74 60 6 0 42 27 78
60 37 33 71 60 77 60 6 0 33 22 60 50 27 27 57 50 66 50 10 0 43 27 75 60 31
33 64 60 71 60 8 0 44 27 80 60 36 33 71 60 78 60 7 0 19 7 26 17 8 9 58 49
112 90 54 41 101 81 104 89 3 8 15 14 28 14 15 0 39 18 68 50 62 68 79 67 158
-15 34 -36 69 -65 76 -65 17 0 123 -91 123 -105 0 -14 -106 -105 -122 -105 -8
0 -40 -27 -73 -60 -33 -33 -66 -60 -73 -60 -8 0 -35 -21 -60 -47 -26 -27 -60
-55 -77 -63 -16 -8 -51 -36 -78 -62 -27 -27 -57 -48 -66 -48 -9 0 -43 -27 -76
-60 -33 -33 -66 -60 -75 -60 -9 0 -42 -27 -75 -60 -33 -33 -67 -60 -75 -60 -9
0 -32 -16 -51 -36 -18 -20 -56 -51 -84 -69 -27 -18 -67 -51 -89 -73 -21 -22
-44 -38 -50 -36 -6 2 -38 -23 -71 -56 -33 -33 -66 -60 -73 -60 -8 0 -46 -29
-84 -65 -39 -36 -76 -65 -82 -65 -7 0 -32 -20 -56 -45 -24 -25 -51 -45 -60
-45 -9 0 -42 -27 -75 -60 -33 -33 -66 -60 -73 -60 -8 0 -43 -27 -79 -60 -36
-33 -71 -60 -77 -60 -7 0 -30 -18 -51 -41 -22 -22 -53 -47 -68 -56 -16 -8 -55
-39 -88 -69 -33 -30 -63 -53 -68 -50 -4 3 -36 -24 -71 -59 -36 -36 -72 -65
-81 -65 -9 0 -22 -7 -29 -15 -25 -30 -73 -18 -120 30 -24 25 -50 45 -58 45 -8
0 -44 29 -81 65 -37 36 -74 65 -82 65 -8 0 -41 27 -74 60 -33 33 -66 60 -75
60 -9 0 -36 20 -60 45 -24 25 -49 45 -56 45 -6 0 -41 27 -77 60 -36 33 -71 60
-79 60 -7 0 -40 27 -73 60 -33 33 -66 60 -73 60 -8 0 -43 27 -79 60 -36 33
-71 60 -77 60 -7 0 -34 23 -61 50 -27 28 -56 50 -65 50 -9 0 -42 27 -75 60
-33 33 -66 60 -75 60 -9 0 -42 27 -75 60 -33 33 -66 60 -75 60 -9 0 -36 20
-60 45 -24 25 -49 45 -55 45 -5 0 -41 27 -80 60 -38 33 -74 60 -79 60 -4 0
-39 27 -76 60 -37 33 -72 60 -78 60 -6 0 -39 27 -74 60 -35 33 -68 60 -75 60
-6 0 -33 23 -59 50 -26 28 -55 50 -63 50 -9 0 -43 27 -76 60 -38 38 -68 60
-82 60 -31 0 -42 43 -18 70 10 11 22 20 28 20 5 0 38 27 74 60 35 33 70 60 78
60 8 0 27 16 42 35 31 39 57 45 73 15z"></path>
</g>
</svg>