 <svg version="1.0" xmlns="http://www.w3.org/2000/svg" width="20.000000pt" height="20.000000pt" viewBox="0 0 700.000000 700.000000" preserveAspectRatio="xMidYMid meet">
<metadata>
Created by potrace 1.12, written by Peter Selinger 2001-2015
</metadata>
<g transform="translate(0.000000,700.000000) scale(0.100000,-0.100000)" fill="#000000" stroke="none">
<path d="M3205 6930 c-44 -4 -118 -14 -165 -23 -47 -9 -127 -21 -177 -27 -51
-6 -114 -19 -140 -29 -27 -10 -73 -22 -103 -26 -30 -4 -81 -18 -112 -30 -31
-13 -76 -26 -100 -30 -24 -4 -63 -18 -88 -30 -25 -12 -61 -26 -80 -30 -19 -4
-53 -18 -75 -30 -22 -12 -53 -26 -69 -29 -17 -4 -41 -15 -55 -25 -14 -10 -43
-24 -63 -30 -20 -7 -47 -20 -60 -30 -13 -10 -37 -22 -53 -28 -17 -6 -48 -22
-69 -37 -21 -14 -45 -26 -54 -26 -8 0 -29 -12 -47 -27 -17 -16 -47 -37 -65
-48 -65 -39 -98 -60 -124 -80 -15 -11 -43 -32 -64 -47 -173 -127 -248 -192
-417 -363 -82 -83 -159 -163 -171 -176 -110 -128 -144 -169 -144 -176 0 -4
-15 -27 -33 -50 -39 -51 -71 -97 -100 -142 -12 -19 -34 -53 -49 -75 -16 -23
-38 -61 -51 -86 -12 -26 -32 -59 -45 -74 -12 -16 -22 -36 -22 -46 0 -10 -9
-29 -20 -43 -11 -14 -27 -44 -35 -67 -8 -23 -24 -53 -35 -67 -11 -14 -20 -33
-20 -42 0 -10 -11 -39 -24 -67 -48 -97 -128 -334 -156 -464 -10 -47 -25 -101
-33 -120 -8 -19 -20 -84 -26 -145 -13 -126 -25 -178 -46 -195 -13 -11 -15 -74
-15 -436 0 -290 3 -424 11 -424 19 0 37 -65 48 -178 7 -62 20 -134 30 -160 10
-26 24 -80 30 -120 6 -41 20 -90 30 -110 10 -20 22 -57 26 -82 4 -25 17 -65
30 -90 12 -25 27 -67 34 -94 7 -27 21 -60 32 -74 10 -14 19 -32 19 -40 0 -15
56 -140 86 -192 8 -14 26 -47 40 -75 28 -57 70 -130 98 -171 11 -16 32 -49 47
-74 60 -96 180 -264 229 -319 14 -16 52 -59 85 -97 82 -93 221 -230 319 -316
44 -39 91 -81 102 -92 12 -12 56 -46 99 -76 42 -30 97 -70 121 -88 24 -17 47
-32 50 -32 3 0 24 -13 47 -29 78 -53 140 -91 150 -91 6 0 24 -11 41 -24 17
-13 42 -27 56 -31 14 -4 41 -18 60 -31 19 -13 39 -24 45 -24 5 0 37 -13 70
-29 110 -54 192 -89 226 -96 19 -4 49 -16 68 -28 24 -14 57 -22 110 -25 l76
-4 51 42 c51 41 52 42 58 112 12 118 4 647 -9 658 -8 7 -52 3 -131 -11 -72
-13 -159 -22 -219 -22 -119 1 -345 37 -395 64 -19 10 -55 28 -80 39 -25 11
-64 32 -88 46 -55 33 -168 148 -192 194 -10 20 -25 42 -34 49 -9 7 -18 29 -22
50 -4 20 -15 46 -25 59 -10 13 -23 40 -30 60 -7 20 -22 51 -35 67 -12 17 -26
42 -29 58 -4 15 -11 27 -16 27 -5 0 -20 17 -33 38 -32 51 -170 189 -210 209
-55 29 -135 104 -141 135 -9 40 12 61 81 83 56 17 56 17 162 -11 68 -18 115
-36 129 -50 12 -12 34 -25 49 -28 59 -15 233 -196 283 -294 12 -23 25 -42 29
-42 4 0 15 -13 24 -28 22 -37 146 -162 160 -162 7 0 21 -9 32 -19 28 -26 137
-70 216 -88 89 -21 278 -11 358 17 31 12 79 26 106 33 49 12 51 14 73 72 13
33 30 85 38 115 18 68 77 190 104 214 12 11 21 26 21 35 0 8 12 25 27 36 34
28 23 49 -23 42 -51 -8 -221 11 -289 33 -33 11 -92 26 -132 34 -39 8 -82 21
-95 30 -13 8 -41 18 -63 22 -22 3 -60 17 -85 30 -25 13 -61 31 -80 39 -47 21
-115 61 -185 110 -32 22 -70 48 -84 57 -45 30 -195 192 -235 254 -78 122 -106
169 -106 181 0 7 -11 28 -24 47 -13 20 -27 52 -31 73 -4 20 -16 55 -27 76 -10
21 -24 67 -29 101 -6 33 -19 90 -30 126 -15 50 -22 118 -31 293 -13 273 -1
489 31 563 11 24 23 62 27 82 3 20 16 60 29 87 13 28 33 70 45 95 19 42 31 62
87 151 31 49 84 119 111 144 27 27 28 38 2 73 -58 78 -64 554 -9 694 11 28 25
73 30 100 16 75 34 82 183 76 97 -5 131 -10 163 -26 22 -12 62 -26 89 -33 27
-6 59 -18 71 -25 12 -8 47 -23 77 -34 30 -12 60 -27 66 -35 7 -8 20 -15 30
-15 9 0 36 -13 61 -28 24 -16 80 -50 124 -76 44 -27 84 -55 88 -62 12 -22 85
-17 167 11 40 14 90 25 109 25 20 1 72 8 116 16 187 36 283 44 525 44 242 0
338 -8 525 -44 44 -8 97 -15 118 -16 20 0 70 -11 109 -25 80 -28 153 -33 165
-11 9 16 88 66 150 96 23 11 45 25 48 30 4 6 50 31 103 56 53 25 115 54 137
65 22 10 60 24 85 30 25 6 63 20 84 31 32 16 67 22 167 26 125 5 128 4 151
-19 16 -16 27 -42 31 -69 3 -25 15 -66 26 -91 32 -72 48 -313 33 -491 -11
-129 -23 -178 -53 -219 -9 -12 -3 -27 37 -78 27 -35 54 -70 60 -79 6 -10 19
-30 30 -46 40 -61 64 -103 84 -146 12 -25 32 -67 45 -95 13 -27 27 -66 30 -85
4 -19 16 -57 27 -84 31 -81 43 -287 30 -558 -8 -183 -15 -247 -31 -298 -11
-36 -24 -93 -30 -126 -5 -34 -19 -80 -29 -101 -11 -21 -23 -56 -27 -76 -4 -21
-18 -53 -31 -73 -13 -19 -24 -40 -24 -46 0 -15 -73 -137 -124 -208 -44 -61
-192 -209 -252 -253 -70 -51 -231 -147 -247 -147 -7 -1 -37 -14 -67 -30 -30
-17 -64 -30 -75 -30 -11 0 -43 -11 -72 -24 -29 -14 -74 -28 -100 -32 -26 -3
-84 -18 -127 -31 -60 -19 -113 -27 -210 -32 -107 -5 -131 -9 -131 -21 0 -8 10
-19 23 -25 12 -5 25 -19 28 -30 4 -11 14 -29 24 -40 32 -35 91 -157 102 -209
6 -28 17 -63 24 -78 25 -48 33 -252 27 -655 -3 -213 -3 -449 2 -525 l7 -136
51 -42 52 -42 76 4 c53 3 86 11 110 25 19 12 50 24 69 28 19 4 64 21 100 37
137 62 196 90 225 105 17 9 44 22 60 30 17 8 37 19 45 24 8 5 35 19 60 32 25
12 56 30 70 40 14 10 48 32 75 50 28 17 58 37 66 42 251 160 526 410 769 697
14 16 37 42 53 58 15 15 27 32 27 37 0 5 24 41 54 80 30 39 64 89 75 110 11
22 27 45 35 52 9 8 16 19 16 26 0 7 10 25 23 40 22 29 48 75 88 155 12 25 29
56 39 70 9 14 24 46 34 72 9 25 23 52 31 58 7 6 16 29 20 50 4 22 15 50 25 63
11 13 24 46 31 73 7 27 22 69 34 94 13 25 26 65 30 90 4 25 16 61 26 81 10 20
23 67 29 105 7 38 20 92 31 121 10 29 23 103 30 165 11 113 29 178 48 178 8 0
11 134 11 424 0 362 -2 425 -15 436 -21 17 -33 69 -46 194 -6 61 -19 130 -29
155 -9 26 -23 77 -29 115 -7 39 -20 88 -30 110 -10 23 -24 66 -31 96 -7 30
-24 77 -36 105 -13 27 -24 57 -24 65 0 8 -14 42 -30 75 -17 33 -30 66 -30 73
0 8 -9 27 -20 42 -11 16 -27 47 -35 70 -8 23 -24 53 -35 67 -11 14 -20 33 -20
42 0 10 -11 33 -26 52 -14 19 -34 52 -45 74 -24 49 -57 102 -86 139 -13 16
-23 33 -23 38 0 6 -11 24 -26 42 -70 87 -94 119 -94 128 0 18 -173 213 -319
359 -163 163 -299 280 -412 357 -42 29 -82 59 -89 67 -7 8 -18 15 -25 15 -8 0
-26 11 -42 24 -15 13 -41 31 -58 40 -16 10 -59 35 -95 56 -85 50 -243 130
-257 130 -6 0 -16 7 -23 14 -6 8 -35 22 -63 32 -29 9 -65 24 -82 34 -16 10
-46 21 -65 25 -19 4 -55 18 -80 30 -25 12 -64 26 -88 30 -24 4 -69 17 -100 30
-31 12 -82 26 -112 30 -30 4 -77 16 -103 26 -26 11 -91 24 -145 30 -53 5 -130
17 -170 25 -40 8 -118 19 -175 24 -115 11 -461 10 -582 0z"></path>
<path d="M1227 1973 c-14 -13 -7 -43 12 -53 26 -13 33 -13 55 3 15 11 17 17 7
35 -11 21 -59 31 -74 15z"></path>
<path d="M1397 1853 c-13 -12 -7 -80 7 -93 20 -15 60 -9 64 10 5 28 -27 90
-46 90 -10 0 -22 -3 -25 -7z"></path>
<path d="M1526 1678 c-3 -7 -7 -30 -9 -50 -7 -46 9 -60 60 -56 53 4 55 30 7
79 -40 41 -52 47 -58 27z"></path>
<path d="M1690 1455 c-24 -29 14 -98 61 -109 65 -15 77 67 15 105 -37 23 -59
24 -76 4z"></path>
<path d="M1926 1314 c-11 -28 -6 -71 8 -83 8 -7 36 -11 63 -9 60 4 68 28 24
76 -33 35 -84 44 -95 16z"></path>
<path d="M2493 1289 c-67 -31 -52 -70 27 -68 103 2 130 34 59 68 -24 12 -43
21 -43 20 -1 0 -20 -9 -43 -20z"></path>
<path d="M2217 1273 c-13 -12 -7 -80 7 -92 8 -7 34 -11 58 -9 42 3 43 4 46 41
2 21 -2 45 -9 53 -12 14 -90 20 -102 7z"></path>
</g>
</svg>