 <svg version="1.0" xmlns="http://www.w3.org/2000/svg" width="700.000000pt" height="700.000000pt" viewBox="0 0 700.000000 700.000000" preserveAspectRatio="xMidYMid meet">
<metadata>
Created by potrace 1.12, written by Peter Selinger 2001-2015
</metadata>
<g transform="translate(0.000000,700.000000) scale(0.100000,-0.100000)" fill="#000000" stroke="none">
<path d="M3390 6879 c-8 -5 -35 -9 -59 -9 -94 0 -449 -47 -546 -71 -22 -6 -58
-14 -80 -18 -22 -4 -65 -16 -95 -25 -30 -10 -111 -36 -180 -58 -164 -52 -263
-93 -445 -185 -174 -87 -270 -142 -376 -215 -122 -83 -146 -102 -282 -217
-373 -314 -664 -691 -869 -1121 -61 -129 -128 -285 -128 -299 0 -6 -4 -19 -9
-29 -6 -9 -22 -57 -37 -107 -14 -49 -32 -108 -39 -130 -7 -22 -16 -58 -20 -80
-4 -22 -13 -57 -21 -78 -8 -20 -14 -51 -14 -67 0 -16 -4 -49 -10 -72 -5 -24
-19 -119 -31 -213 -36 -280 -28 -614 22 -925 5 -36 14 -92 18 -126 5 -34 13
-70 19 -80 5 -10 13 -39 17 -63 9 -54 99 -333 150 -461 45 -115 161 -346 227
-453 26 -43 48 -82 49 -85 0 -4 16 -27 35 -52 18 -25 45 -62 59 -83 128 -191
373 -461 548 -606 126 -104 236 -191 242 -191 3 0 31 -20 64 -45 33 -25 83
-58 113 -73 29 -16 73 -41 97 -56 64 -41 270 -146 285 -146 8 0 19 -7 26 -15
7 -8 19 -15 27 -15 8 0 35 -10 61 -21 79 -36 226 -89 247 -89 12 0 25 -4 30
-9 15 -13 97 -36 245 -69 201 -45 299 -61 465 -72 83 -6 184 -15 225 -20 43
-5 105 -5 145 0 39 5 142 14 230 20 88 6 198 17 245 26 128 23 279 55 330 70
25 7 79 23 120 34 76 22 130 41 185 65 17 7 46 18 65 25 92 32 319 139 400
189 19 11 46 26 60 33 28 14 246 158 328 217 98 70 322 273 426 385 151 162
222 250 322 401 26 39 64 96 86 128 21 32 43 70 49 84 5 14 18 38 29 53 24 34
120 224 120 238 0 5 7 15 15 22 8 7 15 20 15 29 0 9 6 27 13 41 7 14 19 45 27
70 7 25 17 50 20 55 4 6 18 42 30 80 13 39 27 79 31 90 15 38 66 231 82 310
35 175 47 266 57 415 6 85 14 185 19 222 4 36 4 104 0 150 -4 45 -13 153 -19
238 -6 85 -18 180 -25 210 -7 30 -16 80 -19 110 -8 73 -54 254 -107 415 -68
213 -185 472 -277 620 -18 28 -37 61 -43 75 -5 14 -21 39 -35 57 -13 17 -24
34 -24 37 0 3 -15 26 -32 51 -18 26 -37 54 -43 64 -5 9 -35 48 -65 87 -256
324 -550 599 -819 765 -14 9 -65 41 -112 70 -110 69 -134 82 -244 136 -49 24
-97 48 -105 54 -18 11 -25 14 -110 46 -78 29 -134 51 -177 69 -17 8 -37 14
-45 14 -7 0 -58 15 -113 34 -55 19 -120 37 -145 41 -25 4 -53 11 -62 16 -43
23 -456 75 -668 84 -69 3 -136 8 -150 10 -14 2 -32 0 -40 -6z m325 -39 c396
-37 651 -93 980 -216 410 -154 807 -409 1133 -728 288 -282 487 -556 667 -920
315 -638 415 -1334 294 -2051 -84 -501 -308 -1017 -619 -1430 -560 -742 -1372
-1204 -2310 -1316 -141 -17 -564 -17 -715 -1 -1152 127 -2137 817 -2650 1857
-308 624 -407 1306 -293 2025 74 472 285 979 575 1385 424 595 1056 1049 1743
1253 289 86 428 111 810 146 84 7 284 5 385 -4z"></path>
<path d="M3120 6658 c-30 -5 -95 -15 -145 -23 -462 -72 -957 -282 -1356 -577
-688 -507 -1141 -1261 -1266 -2108 -24 -160 -29 -679 -8 -835 132 -988 676
-1821 1526 -2336 382 -230 823 -381 1264 -431 143 -16 579 -17 720 0 502 58
980 233 1405 518 455 304 831 729 1072 1214 84 169 173 387 204 500 104 376
129 557 129 925 0 338 -19 498 -96 792 -211 814 -732 1506 -1456 1936 -378
224 -775 361 -1223 422 -129 17 -673 20 -770 3z m761 -27 c24 -5 80 -14 124
-21 76 -11 129 -22 275 -57 143 -34 409 -130 540 -194 24 -12 63 -30 85 -40
22 -10 47 -23 55 -28 8 -5 22 -12 30 -15 8 -3 22 -10 30 -16 8 -5 58 -35 110
-66 409 -243 823 -654 1050 -1044 11 -19 30 -51 42 -70 32 -53 151 -289 172
-340 129 -323 197 -577 231 -870 24 -203 30 -437 16 -586 -49 -515 -152 -859
-393 -1314 -211 -399 -602 -822 -1003 -1085 -104 -68 -282 -173 -315 -186 -8
-3 -62 -28 -120 -56 -138 -67 -352 -143 -555 -198 -229 -61 -597 -102 -839
-92 -157 7 -434 37 -521 57 -244 56 -442 114 -504 146 -14 8 -31 14 -37 14
-30 0 -284 123 -422 203 -67 40 -130 77 -140 82 -69 40 -260 185 -362 273
-175 152 -392 396 -530 596 -163 235 -316 545 -400 811 -47 151 -91 332 -110
455 -6 41 -16 102 -23 135 -16 87 -15 635 1 755 44 312 116 584 217 815 7 17
16 41 20 55 8 28 116 241 172 340 41 74 169 260 258 377 75 99 396 419 498
498 100 76 262 190 307 216 19 11 58 33 85 49 77 46 329 169 403 197 193 72
291 103 432 136 209 49 240 54 490 81 66 8 587 -3 631 -13z"></path>
<path d="M3684 6081 c-49 -21 -61 -53 -67 -178 -9 -164 -28 -249 -84 -373 -28
-62 -94 -148 -121 -158 -15 -5 -74 -15 -132 -21 -145 -16 -360 -66 -360 -83 0
-12 20 -10 127 17 54 13 155 31 224 40 68 9 140 24 159 33 44 22 110 120 149
221 32 85 61 235 61 320 0 108 30 161 92 161 15 0 39 -11 55 -24 27 -23 27
-26 26 -127 -1 -155 -41 -359 -88 -448 -16 -32 -20 -61 -7 -61 12 1 51 94 77
182 28 100 49 278 43 382 -3 59 -8 80 -23 96 -23 22 -99 35 -131 21z"></path>
<path d="M2745 5826 c-29 -23 -29 -26 -36 -142 -11 -206 -55 -361 -139 -488
-58 -88 -93 -123 -217 -222 -201 -160 -395 -387 -488 -572 -29 -57 -50 -68
-145 -75 -115 -8 -251 -66 -369 -156 -45 -34 -147 -162 -171 -215 -11 -23 -31
-79 -46 -125 -22 -72 -26 -102 -26 -210 0 -107 4 -139 26 -210 48 -157 148
-295 276 -380 75 -50 184 -101 215 -101 45 0 99 -25 116 -54 11 -17 19 -37 19
-45 0 -14 18 -58 58 -141 23 -48 130 -227 161 -270 149 -204 349 -390 559
-517 32 -20 211 -109 267 -133 57 -25 189 -64 312 -92 133 -30 147 -31 368
-32 227 -1 252 2 425 40 125 28 190 48 305 96 101 42 112 48 192 95 40 24 76
43 79 43 4 0 26 16 50 35 23 19 45 35 49 35 11 0 187 151 240 206 43 45 78 87
205 247 26 32 126 200 147 247 7 14 26 59 43 100 50 123 50 123 113 142 88 27
175 71 247 126 74 56 93 76 142 147 90 131 133 282 125 445 -6 126 -24 198
-77 305 -47 95 -99 158 -189 228 -98 77 -265 147 -354 147 -45 0 -60 14 -112
101 -26 45 -63 101 -82 125 -18 24 -33 47 -33 50 0 8 -94 117 -175 203 -64 68
-218 201 -233 201 -5 0 -19 11 -32 25 -13 14 -27 25 -32 25 -5 0 -38 18 -73
39 -36 22 -65 36 -65 32 0 -13 29 -36 130 -102 219 -143 410 -344 561 -590 33
-54 70 -104 83 -113 13 -8 55 -20 92 -27 262 -44 470 -233 544 -494 27 -95 27
-261 0 -365 -56 -217 -215 -390 -426 -465 -43 -16 -91 -39 -106 -53 -15 -14
-50 -76 -77 -139 -98 -223 -222 -404 -396 -579 -238 -239 -517 -399 -835 -480
-610 -155 -1236 -1 -1697 418 -199 180 -351 395 -468 661 -43 98 -74 131 -138
148 -205 54 -366 178 -452 349 -71 141 -94 332 -56 480 45 177 131 307 269
404 91 65 183 100 311 121 112 17 116 21 196 149 124 201 237 328 446 502 180
150 249 241 304 405 31 91 65 273 65 349 0 75 25 110 79 110 99 0 112 -97 55
-393 -14 -70 -14 -100 1 -86 7 8 33 127 45 207 23 162 9 275 -37 294 -41 16
-108 8 -138 -16z"></path>
<path d="M4464 5746 c-27 -12 -35 -24 -53 -82 -11 -37 -21 -71 -21 -76 0 -5
-12 -35 -26 -66 -53 -115 -192 -252 -257 -252 -15 0 -44 6 -64 14 -36 14 -182
47 -265 61 -22 3 -38 2 -38 -4 0 -12 16 -17 95 -30 33 -6 101 -22 150 -36 50
-14 106 -25 126 -25 100 0 266 190 309 355 19 74 36 101 69 114 37 16 79 -1
98 -39 34 -65 -44 -280 -148 -408 -61 -76 -64 -101 -4 -42 51 50 103 132 130
206 10 27 21 54 25 59 14 20 31 131 28 175 -3 38 -8 48 -37 67 -38 26 -72 28
-117 9z"></path>
<path d="M3240 5150 c-148 -25 -203 -39 -325 -85 -252 -94 -488 -260 -683
-480 -78 -87 -195 -266 -246 -375 -149 -321 -193 -697 -121 -1045 116 -563
526 -1035 1065 -1229 163 -59 389 -96 580 -96 376 1 750 137 1045 380 274 226
482 559 560 896 93 400 41 802 -152 1176 -206 398 -631 728 -1073 832 -134 32
-190 38 -360 42 -140 3 -198 0 -290 -16z m461 -20 c85 -12 168 -25 184 -30
352 -109 545 -220 765 -440 152 -151 228 -254 308 -420 120 -247 168 -433 179
-705 6 -133 -23 -346 -67 -494 -109 -366 -345 -686 -665 -899 -122 -81 -153
-99 -275 -150 -189 -80 -434 -132 -622 -132 -90 0 -293 23 -363 41 -22 6 -58
15 -80 21 -285 75 -548 235 -765 466 -74 79 -210 258 -210 277 0 3 -14 27 -31
55 -46 74 -127 267 -139 330 -6 30 -15 64 -20 75 -12 27 -39 218 -47 330 -10
150 28 391 93 583 33 98 126 289 169 345 19 25 35 49 35 52 0 14 135 172 204
239 58 57 230 191 312 243 46 30 136 73 234 113 153 62 260 86 505 114 76 8
154 4 296 -14z"></path>
<path d="M2608 4130 c-45 -47 -48 -53 -48 -104 0 -45 6 -62 33 -102 36 -52 55
-61 130 -63 54 -1 90 14 127 54 21 22 25 38 28 99 4 67 2 75 -23 104 -39 46
-75 62 -141 62 -56 0 -59 -1 -106 -50z m196 -11 c55 -48 64 -108 27 -178 -17
-30 -63 -51 -115 -51 -87 0 -147 93 -114 178 31 82 137 109 202 51z"></path>
<path d="M4205 4171 c-11 -5 -33 -23 -49 -39 -23 -25 -29 -41 -33 -94 -8 -110
41 -168 147 -176 52 -4 66 -1 99 21 53 35 74 84 69 159 -4 52 -9 63 -41 96
-34 34 -41 37 -104 39 -38 2 -77 -1 -88 -6z m167 -58 c22 -22 32 -43 35 -75
10 -84 -49 -148 -136 -148 -37 0 -49 6 -82 39 -35 35 -39 44 -39 89 0 40 5 57
27 82 34 41 58 51 116 46 38 -2 55 -10 79 -33z"></path>
<path d="M3492 4139 c-35 -10 -76 -63 -88 -114 -4 -16 -10 -35 -15 -41 -10
-12 -33 -93 -61 -214 -18 -78 -19 -88 -5 -121 18 -44 73 -74 118 -64 49 11 89
52 89 90 0 19 4 36 9 39 4 3 11 25 15 48 7 43 31 115 67 196 51 115 -18 212
-129 181z m89 -58 c16 -16 29 -38 29 -49 0 -10 -15 -61 -34 -113 -19 -52 -44
-130 -56 -174 -24 -89 -52 -125 -99 -125 -28 0 -62 29 -74 63 -13 34 50 265
97 357 37 73 89 89 137 41z"></path>
<path d="M2833 3342 c-47 -40 -51 -84 -19 -176 15 -42 39 -96 53 -122 58 -103
205 -229 315 -269 102 -38 178 -47 348 -43 175 5 224 15 342 74 176 88 341
344 314 487 -13 70 -111 102 -167 54 -16 -13 -39 -55 -58 -108 -49 -130 -136
-220 -265 -270 -64 -26 -256 -37 -335 -20 -84 18 -161 60 -230 125 -66 64
-121 155 -121 202 0 18 -12 38 -36 60 -46 44 -94 46 -141 6z m115 -29 c16 -16
39 -55 52 -88 57 -147 172 -251 323 -291 68 -18 276 -18 343 0 75 20 147 62
210 123 43 41 66 75 104 158 53 112 74 132 126 119 29 -7 54 -51 54 -91 -2
-108 -125 -293 -255 -383 -99 -68 -259 -110 -420 -110 -308 0 -547 155 -641
416 -31 85 -30 109 5 145 37 36 63 37 99 2z"></path>
<path d="M1605 4099 c-96 -39 -195 -132 -250 -235 -46 -86 -57 -145 -54 -268
4 -109 5 -115 47 -200 49 -98 133 -190 206 -226 45 -21 86 -26 86 -10 0 6 -9
10 -21 10 -30 0 -122 64 -171 119 -47 52 -101 152 -118 216 -24 94 -6 240 41
340 44 94 236 255 303 255 9 0 16 5 16 10 0 15 -29 11 -85 -11z"></path>
<path d="M5320 4092 c0 -6 10 -14 23 -18 31 -10 125 -84 171 -135 21 -23 55
-76 75 -118 35 -75 36 -78 36 -201 -1 -124 -1 -126 -38 -202 -38 -79 -123
-182 -171 -207 -29 -16 -34 -31 -10 -31 22 0 137 113 174 170 52 82 71 152 71
270 0 149 -40 255 -133 356 -67 73 -198 149 -198 116z"></path>
<path d="M1720 4064 c0 -9 -7 -37 -15 -63 -46 -145 -58 -225 -63 -432 -3 -135
0 -235 8 -292 17 -125 35 -113 24 16 -20 234 -5 463 42 644 26 100 30 143 14
143 -5 0 -10 -7 -10 -16z"></path>
<path d="M5266 4048 c-4 -9 4 -69 18 -132 39 -174 49 -297 43 -508 -4 -139 -3
-189 6 -196 9 -8 13 11 17 76 9 148 3 441 -9 495 -14 64 -49 211 -60 252 -7
24 -10 27 -15 13z"></path>
<path d="M5566 2261 c-13 -21 9 -69 68 -143 57 -73 76 -90 76 -69 0 4 -22 39
-50 76 -27 37 -50 72 -50 76 0 29 42 -16 105 -112 6 -8 38 -58 73 -109 63 -97
76 -138 48 -165 -7 -8 -16 -12 -18 -10 -2 3 -17 -9 -33 -25 l-29 -30 22 -22
c19 -20 24 -20 47 -8 40 21 68 77 62 126 -4 42 -38 100 -182 314 -62 92 -75
105 -102 108 -17 2 -34 -1 -37 -7z"></path>
<path d="M1549 2239 c-16 -31 17 -74 57 -74 24 0 30 4 32 28 7 56 -64 92 -89
46z"></path>
<path d="M1390 2125 c-36 -25 -100 -69 -142 -98 -83 -55 -96 -74 -78 -108 18
-33 53 -20 176 64 145 99 164 115 164 137 0 16 -34 50 -50 50 -3 0 -34 -21
-70 -45z m65 -24 c0 -18 -218 -162 -229 -151 -16 16 4 33 159 137 50 33 70 37
70 14z"></path>
<path d="M5407 2025 c-39 -39 -1 -68 110 -85 48 -7 101 -19 118 -26 45 -18
135 -29 135 -16 0 11 -7 14 -87 32 -29 7 -53 14 -53 17 0 3 8 12 18 19 20 14
26 11 -83 43 -111 32 -140 35 -158 16z m139 -46 c3 -5 -11 -9 -30 -9 -32 0
-52 11 -41 22 8 7 65 -3 71 -13z"></path>
<path d="M1593 1838 c-85 -84 -161 -165 -169 -181 -20 -37 -10 -54 85 -147 78
-77 148 -120 195 -120 65 0 126 59 126 121 0 46 -16 52 -25 9 -8 -38 -41 -79
-72 -91 -48 -18 -99 7 -184 89 -95 90 -104 104 -88 135 6 12 70 82 142 155
100 100 138 132 157 132 51 0 200 -160 200 -214 0 -32 -28 -72 -64 -91 -47
-25 -46 -39 2 -32 83 14 119 115 68 196 -29 45 -185 191 -205 191 -7 0 -83
-69 -168 -152z"></path>
<path d="M5795 1880 c3 -5 8 -10 11 -10 2 0 4 5 4 10 0 6 -5 10 -11 10 -5 0
-7 -4 -4 -10z"></path>
<path d="M1700 1840 c-42 -45 -39 -76 15 -138 22 -26 74 -56 82 -48 5 5 -50
57 -89 84 -26 19 -22 61 9 94 14 15 24 31 20 34 -3 4 -20 -8 -37 -26z"></path>
<path d="M1840 1815 c30 -30 56 -55 57 -55 2 0 3 7 3 15 0 19 -79 95 -99 95
-9 0 8 -23 39 -55z"></path>
<path d="M5159 1756 c-47 -32 -67 -78 -49 -111 7 -13 10 -31 7 -39 -12 -31 6
-77 47 -123 35 -38 50 -47 87 -52 34 -5 43 -10 41 -23 -2 -14 4 -16 35 -11 95
15 137 64 137 162 1 60 -2 71 -34 114 -53 74 -108 107 -178 107 -44 0 -66 -6
-93 -24z m184 -37 c33 -22 54 -46 73 -85 32 -65 27 -109 -16 -157 -32 -35 -39
-26 -15 19 43 82 -12 184 -116 215 -34 11 -45 10 -76 -5 -45 -22 -56 -11 -20
20 42 36 109 33 170 -7z m-33 -48 c109 -77 83 -222 -38 -221 -51 1 -83 21
-115 72 -36 57 -11 145 47 168 27 12 75 3 106 -19z"></path>
<path d="M4894 1725 c-4 -8 -4 -25 0 -38 7 -29 321 -374 348 -383 25 -8 48 17
48 53 0 26 -12 30 -30 8 -7 -8 -18 -15 -25 -15 -13 0 -295 305 -295 320 0 22
23 20 45 -4 54 -58 46 -10 -9 52 -23 25 -74 30 -82 7z"></path>
<path d="M1640 1712 c0 -4 25 -32 55 -62 36 -36 57 -65 61 -87 7 -39 24 -44
24 -8 0 38 -23 76 -74 123 -43 40 -66 52 -66 34z"></path>
<path d="M1887 1699 c-3 -11 -19 -25 -36 -32 -33 -12 -41 -27 -15 -27 16 0 74
55 74 71 0 18 -18 9 -23 -12z"></path>
<path d="M1546 1691 c-30 -33 -12 -44 19 -11 20 21 24 30 13 30 -8 0 -23 -9
-32 -19z"></path>
<path d="M1530 1588 c0 -21 104 -116 136 -124 13 -3 32 -3 41 1 14 6 9 10 -22
17 -29 6 -56 25 -97 66 -37 35 -58 50 -58 40z"></path>
<path d="M2130 1463 c-45 -58 -180 -277 -180 -293 0 -9 9 -25 21 -36 27 -25
44 -13 96 67 24 35 59 79 79 98 35 32 39 33 94 28 66 -7 84 4 78 50 -2 22 -8
28 -28 28 -16 0 -28 -8 -35 -22 -6 -15 -22 -24 -49 -29 -56 -9 -82 -29 -134
-99 -44 -59 -68 -76 -66 -43 2 20 108 190 135 214 15 13 22 15 31 6 18 -18 28
-14 28 11 0 25 -17 47 -36 47 -7 0 -22 -12 -34 -27z"></path>
<path d="M4650 1379 c-76 -43 -92 -55 -108 -81 -13 -22 -13 -29 -3 -42 20 -24
34 -20 87 24 30 25 64 43 87 47 20 3 37 9 37 14 0 5 -4 9 -10 9 -5 0 -10 5
-10 10 0 21 51 9 83 -19 35 -32 121 -186 112 -202 -12 -19 -36 -8 -46 21 -14
38 -30 39 -23 1 5 -23 -1 -36 -31 -70 -31 -34 -43 -41 -75 -41 -27 0 -39 -5
-42 -16 -3 -14 -7 -13 -30 6 -30 23 -37 50 -14 50 7 0 17 14 22 32 11 39 76
87 117 88 32 0 35 10 6 28 -31 20 -111 -10 -160 -59 -31 -31 -39 -46 -39 -75
0 -68 55 -124 121 -124 41 0 98 33 125 72 25 35 31 39 59 34 24 -5 36 -1 49
13 18 19 17 22 -9 68 -15 26 -45 80 -67 118 -52 95 -78 115 -148 115 -36 -1
-67 -8 -90 -21z"></path>
<path d="M4075 1286 c-27 -7 -76 -19 -108 -26 -31 -7 -62 -19 -68 -27 -8 -9
-3 -44 21 -135 18 -68 36 -141 41 -163 4 -22 16 -71 26 -110 18 -67 20 -70 52
-73 18 -2 56 3 84 12 29 8 85 24 126 36 128 37 170 106 123 200 -15 31 -79 76
-91 64 -3 -2 12 -22 32 -42 54 -55 59 -98 17 -145 -22 -25 -40 -37 -59 -37
l-26 0 25 20 c32 24 20 36 -17 17 -16 -9 -57 -21 -91 -28 -64 -13 -75 -22 -44
-34 16 -6 16 -7 -2 -21 -25 -17 -70 -18 -84 -1 -10 11 -48 147 -88 307 -25
103 -17 125 50 140 43 9 51 3 29 -23 -18 -20 -17 -20 27 -11 25 5 69 8 98 8
59 -1 67 9 20 25 -43 15 -23 36 25 27 54 -10 62 -26 66 -133 1 -43 13 -42 27
2 14 46 3 111 -24 138 -27 26 -115 32 -187 13z"></path>
<path d="M3042 1268 c-28 -28 -6 -68 38 -68 51 0 70 53 24 70 -33 13 -47 13
-62 -2z"></path>
<path d="M2474 1256 c-11 -28 3 -43 45 -49 23 -3 60 -14 83 -26 46 -23 58 -20
40 9 -10 16 -10 20 1 20 15 0 61 -47 70 -71 12 -36 -45 -223 -79 -259 -12 -12
-16 -12 -31 2 -14 14 -14 19 -3 33 12 15 10 16 -22 10 -19 -4 -54 -1 -78 5
-33 9 -45 18 -53 41 -13 33 -27 38 -27 9 0 -28 -18 -25 -26 5 -7 29 18 75 42
75 8 0 12 -4 9 -10 -3 -5 -2 -10 4 -10 5 0 13 5 16 10 12 19 65 10 148 -25 13
-5 17 -2 17 14 0 40 -95 79 -181 73 -35 -3 -77 -46 -85 -87 -17 -91 37 -145
143 -145 57 0 63 -2 83 -30 12 -16 27 -30 35 -30 18 0 55 48 55 70 0 9 14 47
30 84 42 93 46 182 10 221 -39 42 -92 64 -169 71 -60 6 -71 4 -77 -10z"></path>
<path d="M3970 1140 c0 -31 25 -80 41 -80 4 0 1 16 -7 35 -7 19 -14 44 -14 55
0 11 -4 20 -10 20 -5 0 -10 -14 -10 -30z"></path>
<path d="M4211 1130 c-10 -31 -33 -45 -119 -72 -38 -12 -57 -28 -32 -28 6 0
10 -9 10 -21 0 -17 5 -20 23 -16 118 29 145 31 172 13 36 -24 43 -14 9 13 -15
11 -41 21 -59 21 -17 0 -34 3 -38 6 -3 3 10 26 29 51 34 45 42 63 25 63 -5 0
-14 -14 -20 -30z"></path>
<path d="M3028 1118 c-15 -12 -23 -46 -63 -278 -11 -66 -11 -77 3 -92 19 -22
36 -23 52 -3 11 13 22 61 57 249 4 21 2 27 -8 24 -13 -4 -21 -29 -33 -100 -4
-21 -11 -38 -16 -38 -15 0 -12 72 5 104 8 15 15 37 15 47 0 13 6 18 22 16 30
-3 37 37 12 64 -20 22 -25 23 -46 7z m-8 -275 c0 -23 -17 -49 -26 -41 -9 10 4
58 16 58 6 0 10 -8 10 -17z"></path>
<path d="M3355 1080 c-16 -17 -17 -39 -16 -197 1 -97 4 -180 7 -185 8 -12 62
-10 70 4 4 6 6 59 5 117 -3 123 6 153 51 181 36 22 61 19 94 -11 18 -17 22
-35 28 -147 5 -115 8 -129 28 -145 22 -18 23 -18 40 3 15 19 18 43 18 156 0
148 -10 191 -54 219 -36 24 -112 16 -154 -15 -17 -13 -29 -27 -26 -32 3 -4 -6
-23 -20 -41 -22 -29 -26 -44 -28 -127 -2 -77 -6 -95 -18 -95 -12 0 -15 22 -18
123 -3 138 5 167 44 158 30 -8 31 4 1 32 -28 27 -30 27 -52 2z m248 -29 c36
-14 50 -64 47 -166 -1 -11 2 -34 6 -51 6 -32 -9 -74 -26 -74 -6 0 -10 34 -10
78 0 100 -14 147 -50 174 -51 38 -30 63 33 39z"></path>
<path d="M4300 955 c0 -8 5 -15 10 -15 6 0 10 7 10 15 0 8 -4 15 -10 15 -5 0
-10 -7 -10 -15z"></path>
<path d="M4030 916 c0 -19 5 -38 11 -41 15 -10 17 -4 11 38 -5 47 -22 49 -22
3z"></path>
</g>
</svg>